<?xml version="1.0" encoding="utf-8"?>
<!-- Generator: Adobe Illustrator 27.7.0, SVG Export Plug-In . SVG Version: 6.00 Build 0)  -->
<svg version="1.1" id="Layer_1" xmlns="http://www.w3.org/2000/svg" xmlns:xlink="http://www.w3.org/1999/xlink" x="0px" y="0px"
	 viewBox="0 0 662.46 89.21" style="enable-background:new 0 0 662.46 89.21;" xml:space="preserve">
<style type="text/css">
	.st0{fill:#E5232E;}
</style>
<g>
	<circle class="st0" cx="965.08" cy="-59.33" r="40.37"/>
	<g>
		<path d="M1028.11-285.98c0,0.03,0,0.03-0.03,0.05"/>
		<path d="M999.69-176.58c1.5-7.71,11.84-59.38,28.4-109.34c0.03-0.03,0.03-0.03,0.03-0.05c9.61-28.9,21.29-57.25,34.59-76.17
			c0,0,25.03-35.96,30.43-40.56l-89.62,227.21c0,0,0,0-0.03,0L999.69-176.58z"/>
		<path d="M1014.72-172.66l47.98-120.42l30.43-77.12l24.87-62.93c0,0,94.99-102.39,103.05-107.26l-202.62,369.03L1014.72-172.66z"/>
		<path d="M1029.62-166.45l33.09-60.62l30.43-54.75l127.92-232.81l27.69-50.04c0,0,39.56-40.51,107.21-46.04L1033.3-164.5
			L1029.62-166.45z"/>
		<path d="M1042.94-158.4l327.41-450.49c0,0,52.06,2.26,23.77,83.54l-347.81,369.42L1042.94-158.4z"/>
		<polygon points="1055.12,-148.34 1385.27,-499.02 1340.71,-378.02 1058.6,-144.84 		"/>
		<path d="M1066.07-136.02l262.32-216.57c0,0-17.69,74.33-107.34,123.66l-152.98,95.6L1066.07-136.02z"/>
		<path d="M1081.39-108.09c32.22-15.87,191.99-93.47,236.26-95.89c0,0,34.19-2.4,49.33,8.45l-284.01,92.2L1081.39-108.09z"/>
		<path d="M1085.73-92.54l293.35-94.34c0,0,23.87,9.95-12.11,46.51L1086.6-87.46L1085.73-92.54z"/>
		<path d="M1087.68-76.01l267.27-51.14c0,0-33.56,40.38-37.3,40.8l-229.89,14.48L1087.68-76.01z"/>
		<path d="M1087.16-60.48l216.97-13.24c0,0-22.03,23.66-37.98,27.77l-179.57-10.03L1087.16-60.48z"/>
		<path d="M1084.79-44.55l144.01,9.05c0,0-2.05,17.56-33.9,14.61c-28.64-2.66-97.02-17.45-110.66-20.45L1084.79-44.55z"/>
	</g>
</g>
<g>
	<path d="M14.22,68.53l0.09-61.09L56.18,7.5l-0.02,10.33l-29.54-0.04L26.6,32.25l25.5,0.04l-0.02,10.33l-25.5-0.04l-0.04,25.96
		L14.22,68.53z"/>
	<path d="M74.98,37.86l-10.62-1.93c1.2-4.28,3.26-7.44,6.18-9.49c2.92-2.05,7.26-3.07,13.01-3.06c5.22,0.01,9.11,0.63,11.66,1.87
		c2.55,1.24,4.35,2.81,5.39,4.72c1.04,1.9,1.55,5.4,1.55,10.48L102,54.11c-0.01,3.89,0.18,6.76,0.55,8.61
		c0.37,1.85,1.07,3.83,2.1,5.94l-11.58-0.02c-0.3-0.78-0.68-1.93-1.12-3.46c-0.19-0.69-0.33-1.15-0.41-1.38
		c-2,1.94-4.14,3.4-6.42,4.37c-2.28,0.97-4.71,1.45-7.29,1.45c-4.56-0.01-8.14-1.25-10.77-3.72c-2.62-2.48-3.93-5.6-3.92-9.38
		c0-2.5,0.6-4.73,1.8-6.69c1.2-1.96,2.87-3.45,5.03-4.49c2.15-1.04,5.26-1.94,9.32-2.72c5.47-1.02,9.27-1.97,11.38-2.86l0-1.17
		c0-2.25-0.55-3.86-1.66-4.82c-1.11-0.96-3.21-1.44-6.29-1.45c-2.08,0-3.71,0.4-4.88,1.22C76.65,34.37,75.7,35.81,74.98,37.86z
		 M90.63,47.39c-1.5,0.5-3.88,1.09-7.13,1.78c-3.25,0.69-5.38,1.37-6.38,2.03c-1.53,1.08-2.3,2.45-2.3,4.12
		c0,1.64,0.61,3.06,1.83,4.25c1.22,1.2,2.77,1.8,4.66,1.8c2.11,0,4.13-0.69,6.05-2.07c1.42-1.05,2.35-2.34,2.8-3.87
		c0.31-1,0.46-2.9,0.47-5.71L90.63,47.39z"/>
	<path d="M142.77,68.71l0.01-6.63c-1.61,2.36-3.74,4.22-6.36,5.57c-2.63,1.36-5.4,2.03-8.32,2.03c-2.97,0-5.64-0.66-8-1.97
		c-2.36-1.31-4.07-3.14-5.12-5.51c-1.05-2.36-1.58-5.63-1.57-9.79l0.04-28l11.71,0.02l-0.03,20.33c-0.01,6.22,0.2,10.04,0.63,11.44
		c0.43,1.4,1.21,2.52,2.35,3.34c1.14,0.82,2.58,1.23,4.33,1.24c2,0,3.79-0.54,5.38-1.64c1.59-1.1,2.67-2.45,3.26-4.08
		c0.59-1.62,0.88-5.6,0.89-11.94L142,24.46l11.71,0.02l-0.06,44.25L142.77,68.71z"/>
	<path d="M206.03,68.81l-11.71-0.02l0.03-22.59c0.01-4.78-0.24-7.87-0.74-9.27c-0.5-1.4-1.31-2.49-2.43-3.27
		c-1.12-0.78-2.48-1.17-4.06-1.17c-2.03,0-3.85,0.55-5.46,1.66c-1.61,1.11-2.72,2.58-3.32,4.41c-0.6,1.83-0.9,5.22-0.91,10.17
		l-0.03,20.04l-11.71-0.02l0.06-44.25l10.88,0.02l-0.01,6.5c3.87-4.99,8.73-7.49,14.6-7.48c2.58,0,4.94,0.47,7.08,1.41
		c2.14,0.93,3.75,2.12,4.85,3.57c1.09,1.45,1.86,3.09,2.28,4.92c0.43,1.83,0.64,4.46,0.63,7.88L206.03,68.81z"/>
	<path d="M226.7,38.08l-10.62-1.93c1.2-4.28,3.26-7.44,6.18-9.49c2.92-2.05,7.26-3.07,13.01-3.06c5.22,0.01,9.11,0.63,11.66,1.87
		c2.55,1.24,4.35,2.81,5.39,4.72c1.04,1.9,1.55,5.4,1.55,10.48l-0.14,13.67c-0.01,3.89,0.18,6.76,0.55,8.61
		c0.37,1.85,1.07,3.83,2.1,5.94l-11.58-0.02c-0.3-0.78-0.68-1.93-1.12-3.46c-0.19-0.69-0.33-1.15-0.41-1.38
		c-2,1.94-4.14,3.4-6.42,4.37c-2.28,0.97-4.71,1.45-7.29,1.45c-4.56-0.01-8.14-1.25-10.77-3.72c-2.62-2.48-3.93-5.6-3.92-9.38
		c0-2.5,0.6-4.73,1.8-6.69c1.2-1.96,2.87-3.45,5.03-4.49c2.15-1.04,5.26-1.94,9.32-2.72c5.47-1.02,9.27-1.97,11.38-2.86l0-1.17
		c0-2.25-0.55-3.86-1.66-4.82c-1.11-0.96-3.21-1.44-6.29-1.45c-2.08,0-3.71,0.4-4.88,1.22C228.37,34.59,227.43,36.03,226.7,38.08z
		 M242.35,47.61c-1.5,0.5-3.88,1.09-7.13,1.78c-3.25,0.69-5.38,1.37-6.38,2.03c-1.53,1.08-2.3,2.46-2.3,4.12
		c0,1.64,0.61,3.06,1.83,4.25c1.22,1.2,2.77,1.8,4.66,1.8c2.11,0,4.13-0.69,6.05-2.07c1.42-1.05,2.35-2.34,2.8-3.87
		c0.31-1,0.46-2.9,0.47-5.71L242.35,47.61z"/>
	<path d="M265.8,68.89l0.09-60.87l22.96,0.03c4.04,0.01,7.13,0.2,9.26,0.59c2.99,0.5,5.49,1.45,7.51,2.86
		c2.02,1.4,3.64,3.36,4.87,5.88c1.23,2.52,1.84,5.29,1.84,8.31c-0.01,5.18-1.66,9.55-4.96,13.13c-3.3,3.58-9.25,5.36-17.86,5.35
		l-15.61-0.02l-0.04,24.75L265.8,68.89z M273.9,36.98L289.64,37c5.2,0.01,8.9-0.96,11.09-2.89c2.19-1.93,3.29-4.66,3.29-8.17
		c0-2.55-0.64-4.73-1.92-6.54c-1.28-1.81-2.98-3.01-5.08-3.6c-1.36-0.36-3.86-0.55-7.51-0.55l-15.57-0.02L273.9,36.98z"/>
	<path d="M321.57,68.97l0.09-60.87l7.47,0.01l-0.03,21.84c3.49-4.04,7.9-6.05,13.21-6.04c3.27,0,6.1,0.65,8.51,1.94
		c2.41,1.29,4.13,3.07,5.16,5.34c1.03,2.27,1.55,5.57,1.54,9.88l-0.04,27.94l-7.47-0.01l0.04-27.94c0.01-3.74-0.8-6.46-2.42-8.16
		c-1.62-1.7-3.91-2.56-6.87-2.56c-2.21,0-4.3,0.57-6.25,1.71c-1.95,1.15-3.35,2.7-4.18,4.66c-0.83,1.96-1.25,4.68-1.26,8.14
		l-0.04,24.12L321.57,68.97z"/>
	<path d="M366.1,46.99c0.01-8.17,2.29-14.21,6.84-18.13c3.8-3.26,8.42-4.89,13.87-4.88c6.06,0.01,11.01,2,14.86,5.98
		c3.84,3.98,5.76,9.47,5.75,16.47c-0.01,5.67-0.87,10.14-2.57,13.39c-1.71,3.25-4.19,5.77-7.44,7.57
		c-3.26,1.79-6.81,2.69-10.65,2.68c-6.17-0.01-11.16-2-14.96-5.96C367.98,60.14,366.09,54.44,366.1,46.99z M373.78,47
		c-0.01,5.65,1.22,9.88,3.68,12.69c2.46,2.81,5.56,4.22,9.29,4.23c3.71,0.01,6.8-1.4,9.27-4.22c2.47-2.82,3.71-7.12,3.71-12.91
		c0.01-5.45-1.23-9.59-3.7-12.4c-2.47-2.81-5.55-4.22-9.23-4.23c-3.74-0.01-6.84,1.39-9.31,4.18
		C375.03,37.14,373.79,41.36,373.78,47z"/>
	<path d="M432.47,62.45l1.07,6.6c-2.1,0.44-3.99,0.66-5.65,0.66c-2.71,0-4.82-0.44-6.31-1.3c-1.49-0.86-2.54-1.99-3.15-3.39
		c-0.61-1.4-0.91-4.34-0.9-8.82l0.04-25.37l-5.48-0.01l0.01-5.81l5.48,0.01l0.02-10.92l7.44-4.47l-0.02,15.4l7.52,0.01l-0.01,5.81
		L425,30.84l-0.04,25.78c0,2.13,0.13,3.5,0.39,4.11c0.26,0.61,0.69,1.09,1.28,1.46c0.59,0.36,1.45,0.54,2.55,0.54
		C430.02,62.74,431.11,62.64,432.47,62.45z"/>
	<path d="M437.03,47.09c0.01-8.17,2.29-14.21,6.84-18.13c3.8-3.26,8.42-4.89,13.87-4.88c6.06,0.01,11.01,2,14.86,5.98
		c3.84,3.98,5.76,9.47,5.75,16.47c-0.01,5.67-0.87,10.14-2.57,13.39c-1.71,3.25-4.19,5.77-7.44,7.57
		c-3.26,1.79-6.81,2.69-10.65,2.68c-6.17-0.01-11.16-2-14.96-5.96C438.91,60.25,437.01,54.54,437.03,47.09z M444.71,47.11
		c-0.01,5.65,1.22,9.88,3.68,12.69c2.46,2.81,5.56,4.22,9.29,4.23c3.71,0.01,6.8-1.4,9.27-4.22c2.47-2.82,3.71-7.12,3.71-12.91
		c0.01-5.45-1.23-9.59-3.7-12.4c-2.47-2.81-5.55-4.22-9.23-4.23c-3.74-0.01-6.84,1.39-9.31,4.18
		C445.95,37.24,444.71,41.46,444.71,47.11z"/>
	<path d="M487.07,69.21l0.06-44.09l6.73,0.01l-0.01,6.27c3.25-4.84,7.93-7.25,14.04-7.25c2.66,0,5.1,0.48,7.33,1.44
		c2.23,0.96,3.89,2.21,5,3.76c1.1,1.55,1.88,3.39,2.32,5.53c0.27,1.38,0.41,3.81,0.4,7.27l-0.04,27.11l-7.47-0.01l0.04-26.82
		c0-3.04-0.28-5.32-0.86-6.83c-0.58-1.51-1.61-2.71-3.09-3.62c-1.48-0.9-3.22-1.35-5.21-1.36c-3.18,0-5.93,1-8.25,3.02
		c-2.31,2.02-3.48,5.85-3.48,11.5l-0.03,24.08L487.07,69.21z"/>
	<path d="M534.4,69.28l0.06-44.09l7.47,0.01l-0.06,44.09L534.4,69.28z M534.47,17.01l0.01-8.59l7.47,0.01l-0.01,8.59L534.47,17.01z"
		/>
	<path d="M582.04,53.2l7.35,0.97c-0.81,5.06-2.87,9.03-6.18,11.89c-3.31,2.86-7.38,4.29-12.19,4.28
		c-6.03-0.01-10.88-1.99-14.54-5.94c-3.66-3.95-5.49-9.61-5.48-16.97c0.01-4.76,0.8-8.93,2.38-12.49c1.58-3.57,3.99-6.24,7.22-8.02
		c3.23-1.78,6.74-2.67,10.53-2.66c4.79,0.01,8.7,1.22,11.74,3.65c3.04,2.43,4.99,5.87,5.84,10.33l-7.27,1.11
		c-0.69-2.96-1.91-5.19-3.66-6.69c-1.76-1.5-3.88-2.25-6.37-2.25c-3.76-0.01-6.83,1.34-9.18,4.03c-2.36,2.7-3.54,6.96-3.55,12.8
		c-0.01,5.92,1.12,10.23,3.39,12.92c2.27,2.69,5.23,4.04,8.88,4.04c2.93,0,5.38-0.89,7.35-2.69
		C580.26,59.7,581.51,56.94,582.04,53.2z"/>
	<path d="M592.8,56.21l7.39-1.15c0.41,2.96,1.56,5.23,3.46,6.81c1.89,1.58,4.54,2.37,7.95,2.38c3.43,0.01,5.98-0.69,7.64-2.09
		c1.66-1.39,2.5-3.03,2.5-4.92c0-1.69-0.73-3.02-2.19-3.99c-1.02-0.67-3.57-1.51-7.64-2.54c-5.48-1.39-9.28-2.59-11.39-3.61
		c-2.12-1.01-3.72-2.41-4.81-4.2c-1.09-1.79-1.63-3.76-1.63-5.92c0-1.96,0.46-3.78,1.36-5.46c0.9-1.67,2.13-3.06,3.68-4.17
		c1.16-0.86,2.75-1.58,4.76-2.17c2.01-0.59,4.16-0.89,6.46-0.88c3.46,0.01,6.5,0.51,9.11,1.51c2.61,1,4.54,2.35,5.79,4.06
		c1.24,1.7,2.1,3.98,2.56,6.83l-7.31,0.99c-0.33-2.27-1.29-4.04-2.88-5.32c-1.59-1.28-3.84-1.92-6.74-1.92
		c-3.43-0.01-5.88,0.56-7.35,1.69c-1.47,1.13-2.2,2.46-2.21,3.98c0,0.97,0.3,1.84,0.91,2.62c0.61,0.8,1.56,1.47,2.86,2
		c0.75,0.28,2.95,0.92,6.6,1.92c5.28,1.42,8.97,2.58,11.06,3.48c2.09,0.9,3.73,2.21,4.91,3.93c1.19,1.72,1.78,3.85,1.78,6.4
		c0,2.49-0.73,4.84-2.19,7.03s-3.56,3.9-6.3,5.1c-2.74,1.2-5.84,1.8-9.3,1.79c-5.73-0.01-10.09-1.2-13.09-3.59
		C595.53,64.42,593.62,60.89,592.8,56.21z"/>
</g>
</svg>
